<svg id="Layer_1" data-name="Layer 1" xmlns="http://www.w3.org/2000/svg" viewBox="0 0 1400 1400"><path d="M900,200c-386,0-700,314-700,700s314,700,700,700,700-314,700-700S1286,200,900,200Zm0,1312.5c-337.71,0-612.47-274.76-612.48-612.48S562.27,287.5,900,287.5,1512.5,562.28,1512.5,900,1237.73,1512.5,900,1512.5Z" transform="translate(-200 -200)"/><path d="M1239.06,856.25H666.55L882.18,640.64a43.75,43.75,0,0,0-61.87-61.86L530,869.05a43.78,43.78,0,0,0,0,61.88l290.32,290.32a43.75,43.75,0,0,0,61.88-61.87L666.55,943.75h572.51a43.75,43.75,0,0,0,0-87.5Z" transform="translate(-200 -200)"/></svg>