<svg id="Layer_1" data-name="Layer 1" xmlns="http://www.w3.org/2000/svg" viewBox="0 0 1400 1400"><path d="M900,200c-386,0-700,314-700,700s314,700,700,700,700-314,700-700S1286,200,900,200Zm0,1312.5C562.27,1512.5,287.5,1237.72,287.5,900S562.27,287.5,900,287.5,1512.48,562.26,1512.5,900,1237.72,1512.5,900,1512.5Z" transform="translate(-200 -200)"/><path d="M979.68,578.75a43.75,43.75,0,1,0-61.86,61.89l215.62,215.61H560.94a43.75,43.75,0,0,0,0,87.5h572.5L917.82,1159.36a43.74,43.74,0,1,0,61.86,61.86L1270,930.93a43.75,43.75,0,0,0,0-61.86Z" transform="translate(-200 -200)"/></svg>